<?xml version="1.0" encoding="UTF-8"?>
<svg width="25px" height="19px" viewBox="0 0 25 19" version="1.1" xmlns="http://www.w3.org/2000/svg" xmlns:xlink="http://www.w3.org/1999/xlink">
    <!-- Generator: Sketch 42 (36781) - http://www.bohemiancoding.com/sketch -->
    <title>delete</title>
    <desc>Created with Sketch.</desc>
    <defs>
        <linearGradient x1="50%" y1="0%" x2="50%" y2="100%" id="linearGradient-1">
            <stop stop-color="#FF5D3B" offset="2.89580676%"></stop>
            <stop stop-color="#FF2D67" offset="100%"></stop>
        </linearGradient>
    </defs>
    <g id="Page-1" stroke="none" stroke-width="1" fill="none" fill-rule="evenodd">
        <g id="Filled" transform="translate(-150.000000, -203.000000)" fill="url(#linearGradient-1)">
            <g id="delete" transform="translate(150.000000, 203.000000)">
                <path d="M19.8535,13.1465 C20.0485,13.3415 20.0485,13.6585 19.8535,13.8535 C19.7555,13.9515 19.6275,14.0005 19.4995,14.0005 C19.3725,14.0005 19.2445,13.9515 19.1465,13.8535 L15.4995,10.2075 L11.8535,13.8535 C11.7555,13.9515 11.6275,14.0005 11.4995,14.0005 C11.3725,14.0005 11.2445,13.9515 11.1465,13.8535 C10.9515,13.6585 10.9515,13.3415 11.1465,13.1465 L14.7925,9.5005 L11.1465,5.8535 C10.9515,5.6585 10.9515,5.3415 11.1465,5.1465 C11.3415,4.9515 11.6585,4.9515 11.8535,5.1465 L15.4995,8.7925 L19.1465,5.1465 C19.3415,4.9515 19.6585,4.9515 19.8535,5.1465 C20.0485,5.3415 20.0485,5.6585 19.8535,5.8535 L16.2075,9.5005 L19.8535,13.1465 Z M23.4995,0.0005 L8.9495,0.0005 C8.5215,0.0005 8.1135,0.1835 7.8275,0.5035 L0.1255,9.1675 C-0.0425,9.3575 -0.0425,9.6425 0.1255,9.8325 L7.8285,18.4975 C8.1135,18.8165 8.5215,19.0005 8.9495,19.0005 L23.4995,19.0005 C24.3275,19.0005 24.9995,18.3275 24.9995,17.5005 L24.9995,1.5005 C24.9995,0.6725 24.3275,0.0005 23.4995,0.0005 L23.4995,0.0005 Z" id="Fill-1"></path>
            </g>
        </g>
    </g>
</svg>