<?xml version="1.0" encoding="UTF-8"?>
<svg width="25px" height="25px" viewBox="0 0 25 25" version="1.1" xmlns="http://www.w3.org/2000/svg" xmlns:xlink="http://www.w3.org/1999/xlink">
    <!-- Generator: Sketch 42 (36781) - http://www.bohemiancoding.com/sketch -->
    <title>search</title>
    <desc>Created with Sketch.</desc>
    <defs></defs>
    <g id="Page-1" stroke="none" stroke-width="1" fill="none" fill-rule="evenodd">
        <g id="Full-Color" transform="translate(-450.000000, -50.000000)">
            <g id="search" transform="translate(450.000000, 50.000000)">
                <path d="M18.5,9.5 C18.5,14.471 14.471,18.5 9.5,18.5 C4.529,18.5 0.5,14.471 0.5,9.5 C0.5,4.529 4.529,0.5 9.5,0.5 C14.471,0.5 18.5,4.529 18.5,9.5" id="Fill-1" fill="#339EFF"></path>
                <path d="M19,9.5 C19,14.7471424 14.7471424,19 9.5,19 C4.25285763,19 0,14.7471424 0,9.5 C0,9.1570103 0.0212052868,8.80803934 0.062132245,8.44412126 C0.128787377,7.85143103 0.990362033,7.85219493 1.05596606,8.44500242 C1.52989886,12.7275277 5.15864379,16 9.5,16 C13.8413562,16 17.4701011,12.7275277 17.9440339,8.44500242 C18.009638,7.85219493 18.8712126,7.85143103 18.9378678,8.44412126 C18.9787947,8.80803934 19,9.1570103 19,9.5 Z" id="Stroke-5" fill="#000000" fill-rule="nonzero" opacity="0.239999995"></path>
                <path d="M23,24.5 C22.616,24.5 22.232,24.354 21.939,24.061 L15.939,18.061 C15.354,17.475 15.354,16.525 15.939,15.939 C16.525,15.354 17.475,15.354 18.061,15.939 L24.061,21.939 C24.646,22.525 24.646,23.475 24.061,24.061 C23.768,24.354 23.384,24.5 23,24.5" id="Fill-8" fill="#FFCC00"></path>
                <path d="M18.5,9.5 C18.5,14.471 14.471,18.5 9.5,18.5 C4.529,18.5 0.5,14.471 0.5,9.5 C0.5,4.529 4.529,0.5 9.5,0.5 C14.471,0.5 18.5,4.529 18.5,9.5 Z" id="Stroke-10" stroke="#000000" stroke-linecap="round" stroke-linejoin="round"></path>
                <path d="M23.7069466,22.7069466 C23.8039229,22.6099703 23.8766567,22.4878293 23.9307505,22.3338124 C24.0871385,21.888541 24.716623,21.8879033 24.8739129,22.3328569 C25.1302161,23.0579072 24.9634751,23.8659311 24.4140534,24.4140534 C24.0341929,24.7939138 23.5263776,24.9995 22.9995,24.9995 C22.473456,24.9995 21.9656811,24.7937878 21.5859466,24.4140534 L15.5863653,18.4144715 C15.0365249,17.8659311 14.8697839,17.0579072 15.1260871,16.3328569 C15.283377,15.8879033 15.9128615,15.888541 16.0692495,16.3338124 C16.1233433,16.4878293 16.1960771,16.6099703 16.2930534,16.7069466 L22.2930534,22.7069466 C22.4832351,22.8971283 22.7359269,22.9995 22.9995,22.9995 C23.26399,22.9995 23.5167024,22.8971908 23.7069466,22.7069466 Z" id="Stroke-14" fill="#000000" fill-rule="nonzero" opacity="0.239999995"></path>
                <path d="M23,24.5 C22.616,24.5 22.232,24.354 21.939,24.061 L15.939,18.061 C15.354,17.475 15.354,16.525 15.939,15.939 C16.525,15.354 17.475,15.354 18.061,15.939 L24.061,21.939 C24.646,22.525 24.646,23.475 24.061,24.061 C23.768,24.354 23.384,24.5 23,24.5 Z" id="Stroke-17" stroke="#000000" stroke-linecap="round" stroke-linejoin="round"></path>
            </g>
        </g>
    </g>
</svg>