<svg xmlns="http://www.w3.org/2000/svg" viewBox="0 0 64 64"><title>earth</title><g id="earth"><circle cx="32" cy="32" r="30" fill="#5ce7ff"/><circle cx="32" cy="32" r="27" fill="#00c9e0"/><path d="M57.77,32A3.3,3.3,0,0,1,55,30.53l-3.45-5.18a5.27,5.27,0,0,0-8.11-.8L41,27a3.29,3.29,0,0,1-2.34,1H35.31A3.31,3.31,0,0,1,32,24.69v-2a3.32,3.32,0,0,1,2.66-3.25,3.31,3.31,0,0,0,2.64-2.83L37.75,13a3.29,3.29,0,0,1,2.15-2.7l8.81-3.2.43.3A30.16,30.16,0,0,1,62,31l0,1Z" fill="#ffcb47"/><path d="M11.45,10.17A29.94,29.94,0,0,1,31,2l1,0V5.5A1.5,1.5,0,0,1,30.5,7h-3A1.5,1.5,0,0,0,26,8.5,1.5,1.5,0,0,1,24.5,10H21.67a22.54,22.54,0,0,0-7.15,1.16l-2.07.69Z" fill="#fff"/><path d="M19.75,53a2.24,2.24,0,0,1-2.18-1.7L14.43,38.7A2.24,2.24,0,0,0,12.25,37H8.39a2.23,2.23,0,0,1-2-1.24L5.24,33.47a2.26,2.26,0,0,1-.24-1V29.6a2.26,2.26,0,0,1,.45-1.35L8,24.87l.6.1.37,0H17.8a2.24,2.24,0,0,1,1.87,1l2.67,4a2.24,2.24,0,0,0,1.87,1h2.55A2.25,2.25,0,0,1,29,33.25V40.7a2.25,2.25,0,0,1-1.13,2l-4.74,2.71a2.25,2.25,0,0,0-1.13,2v3.45A2.25,2.25,0,0,1,19.75,53Z" fill="#ff504d"/><path d="M38,60.06A4.4,4.4,0,0,1,42.39,56h.45A4.38,4.38,0,0,0,47,53a4.38,4.38,0,0,1,4.16-3h4.91l-1.44,1.66A29.88,29.88,0,0,1,39.27,61.1l-1.34.34Z" fill="#fff"/><line x1="13" y1="21" x2="15" y2="21" fill="none" stroke="#3e3948" stroke-miterlimit="10" stroke-width="2"/><line x1="17" y1="21" x2="19" y2="21" fill="none" stroke="#3e3948" stroke-miterlimit="10" stroke-width="2"/><line x1="46" y1="28" x2="48" y2="28" fill="none" stroke="#3e3948" stroke-miterlimit="10" stroke-width="2"/><line x1="43" y1="52" x2="41" y2="52" fill="none" stroke="#3e3948" stroke-miterlimit="10" stroke-width="2"/><line x1="38" y1="54" x2="36" y2="54" fill="none" stroke="#3e3948" stroke-miterlimit="10" stroke-width="2"/><circle cx="32" cy="32" r="30" fill="none" stroke="#3e3948" stroke-miterlimit="10" stroke-width="2"/><path d="M38,61v-.61A4.39,4.39,0,0,1,42.39,56h.45A4.39,4.39,0,0,0,47,53h0a4.39,4.39,0,0,1,4.16-3H56" fill="none" stroke="#3e3948" stroke-miterlimit="10" stroke-width="2"/><path d="M49,7l-9.1,3.31A3.31,3.31,0,0,0,37.75,13l-.45,3.62a3.31,3.31,0,0,1-2.64,2.84h0A3.31,3.31,0,0,0,32,22.71v2A3.31,3.31,0,0,0,35.31,28h3.32A3.31,3.31,0,0,0,41,27l2.49-2.49A5.27,5.27,0,0,1,47.18,23h0a5.27,5.27,0,0,1,4.38,2.35L55,30.53A3.31,3.31,0,0,0,57.77,32H62" fill="none" stroke="#3e3948" stroke-miterlimit="10" stroke-width="2"/><path d="M32,2V5.5A1.5,1.5,0,0,1,30.5,7h-3A1.5,1.5,0,0,0,26,8.5h0A1.5,1.5,0,0,1,24.5,10H21.67a22.6,22.6,0,0,0-7.15,1.16L9,13" fill="none" stroke="#3e3948" stroke-miterlimit="10" stroke-width="2"/><path d="M5,19l.63,2.14a6.27,6.27,0,0,0,1.71,3.2h0A2.25,2.25,0,0,0,8.93,25H17.8a2.25,2.25,0,0,1,1.87,1l2.67,4a2.25,2.25,0,0,0,1.87,1h2.55A2.25,2.25,0,0,1,29,33.25V40.7a2.25,2.25,0,0,1-1.13,2l-4.74,2.71a2.25,2.25,0,0,0-1.13,2v3.45A2.25,2.25,0,0,1,19.75,53h0a2.25,2.25,0,0,1-2.18-1.7L14.43,38.7A2.25,2.25,0,0,0,12.25,37H8.39a2.25,2.25,0,0,1-2-1.24L5.24,33.47a2.25,2.25,0,0,1-.24-1V29.6a2.25,2.25,0,0,1,.45-1.35L8,24.85" fill="none" stroke="#3e3948" stroke-miterlimit="10" stroke-width="2"/></g></svg>